<svg xmlns="http://www.w3.org/2000/svg" xmlns:xlink="http://www.w3.org/1999/xlink" viewBox="0,0,256,256" width="48px" height="48px" fill-rule="nonzero"><defs><linearGradient x1="2.818" y1="4.939" x2="19.061" y2="21.182" gradientUnits="userSpaceOnUse" id="color-1"><stop offset="0" stop-color="#b3b3b3"></stop><stop offset="1" stop-color="#b3b3b3"></stop></linearGradient><linearGradient x1="2.818" y1="4.939" x2="19.061" y2="21.182" gradientUnits="userSpaceOnUse" id="color-2"><stop offset="0" stop-color="#b3b3b3"></stop><stop offset="0.493" stop-color="#b3b3b3"></stop><stop offset="0.997" stop-color="#b3b3b3"></stop></linearGradient><linearGradient x1="12.793" y1="3.207" x2="18.793" y2="9.207" gradientUnits="userSpaceOnUse" id="color-3"><stop offset="0" stop-color="#d1d1d1"></stop><stop offset="0.519" stop-color="#d1d1d1"></stop><stop offset="1" stop-color="#d1d1d1"></stop></linearGradient></defs><g transform=""><g fill="none" fill-rule="nonzero" stroke="none" stroke-width="1" stroke-linecap="butt" stroke-linejoin="miter" stroke-miterlimit="10" stroke-dasharray="" stroke-dashoffset="0" font-family="none" font-weight="none" font-size="none" text-anchor="none" style="mix-blend-mode: normal"><g transform="scale(10.66667,10.66667)"><path d="M4,19v-14c0,-1.657 1.343,-3 3,-3h7l6,6v11c0,1.657 -1.343,3 -3,3h-10c-1.657,0 -3,-1.343 -3,-3z" fill="url(#color-1)"></path><path d="M13.793,2.5l5.707,5.707v10.793c0,1.378 -1.122,2.5 -2.5,2.5h-10c-1.378,0 -2.5,-1.122 -2.5,-2.5v-14c0,-1.379 1.122,-2.5 2.5,-2.5h6.793M14,2h-7c-1.657,0 -3,1.343 -3,3v14c0,1.657 1.343,3 3,3h10c1.657,0 3,-1.343 3,-3v-11l-6,-6z" fill="url(#color-2)"></path><path d="M14,6v-4l6,6h-4c-1.105,0 -2,-0.895 -2,-2z" fill="url(#color-3)"></path></g></g></g></svg>