<!DOCTYPE svg PUBLIC "-//W3C//DTD SVG 1.1//EN" "http://www.w3.org/Graphics/SVG/1.1/DTD/svg11.dtd">
<!-- Uploaded to: SVG Repo, www.svgrepo.com, Transformed by: SVG Repo Mixer Tools -->
<svg fill="#000000" width="800px" height="800px" viewBox="0 0 24 24" id="file-done-4" data-name="Flat Color" xmlns="http://www.w3.org/2000/svg" class="icon flat-color" stroke="#000000" stroke-width="0.00024000000000000003">
<g id="SVGRepo_bgCarrier" stroke-width="0"/>
<g id="SVGRepo_tracerCarrier" stroke-linecap="round" stroke-linejoin="round" stroke="#CCCCCC" stroke-width="1.2"/>
<g id="SVGRepo_iconCarrier">
<path id="secondary" d="M17,22a1,1,0,0,1-.71-.29l-2-2a1,1,0,0,1,1.42-1.42L17,19.59l3.29-3.3a1,1,0,0,1,1.42,1.42l-4,4A1,1,0,0,1,17,22Z" style="fill: #dedede;"/>
<path id="primary" d="M17.71,6.29l-4-4A1,1,0,0,0,13,2H4A2,2,0,0,0,2,4V20a2,2,0,0,0,2,2h8.42A5,5,0,0,1,18,15.1V7A1,1,0,0,0,17.71,6.29Z" style="fill: #B5B5B5;"/>
</g>
</svg>