<svg xmlns="http://www.w3.org/2000/svg" xmlns:xlink="http://www.w3.org/1999/xlink" viewBox="0,0,256,256" width="48px" height="48px" fill-rule="nonzero"><defs><linearGradient x1="2.336" y1="2.836" x2="19.871" y2="20.371" gradientUnits="userSpaceOnUse" id="color-1"><stop offset="0" stop-color="#b3b3b3"></stop><stop offset="1" stop-color="#b3b3b3"></stop></linearGradient><linearGradient x1="2.336" y1="2.836" x2="19.871" y2="20.371" gradientUnits="userSpaceOnUse" id="color-2"><stop offset="0" stop-color="#b3b3b3"></stop><stop offset="0.493" stop-color="#b3b3b3"></stop><stop offset="0.997" stop-color="#b3b3b3"></stop></linearGradient></defs><g fill="none" fill-rule="nonzero" stroke="none" stroke-width="1" stroke-linecap="butt" stroke-linejoin="miter" stroke-miterlimit="10" stroke-dasharray="" stroke-dashoffset="0" font-family="none" font-weight="none" font-size="none" text-anchor="none" style="mix-blend-mode: normal"><g transform="scale(10.66667,10.66667)"><path d="M19,5h-8l-0.544,-1.632c-0.272,-0.817 -1.037,-1.368 -1.898,-1.368h-4.558c-1.105,0 -2,0.895 -2,2v13c0,1.657 1.343,3 3,3h14c1.657,0 3,-1.343 3,-3v-9c0,-1.657 -1.343,-3 -3,-3z" fill="url(#color-1)"></path><path d="M8.558,2.5c0.647,0 1.219,0.412 1.423,1.026l0.544,1.632l0.115,0.342h0.36h8c1.379,0 2.5,1.121 2.5,2.5v9c0,1.379 -1.121,2.5 -2.5,2.5h-14c-1.379,0 -2.5,-1.121 -2.5,-2.5v-13c0,-0.827 0.673,-1.5 1.5,-1.5h4.558M8.558,2h-4.558c-1.105,0 -2,0.895 -2,2v13c0,1.657 1.343,3 3,3h14c1.657,0 3,-1.343 3,-3v-9c0,-1.657 -1.343,-3 -3,-3h-8l-0.544,-1.632c-0.272,-0.817 -1.037,-1.368 -1.898,-1.368z" fill="url(#color-2)"></path></g></g></svg>