<!DOCTYPE svg PUBLIC "-//W3C//DTD SVG 1.1//EN" "http://www.w3.org/Graphics/SVG/1.1/DTD/svg11.dtd">
<!-- Uploaded to: SVG Repo, www.svgrepo.com, Transformed by: SVG Repo Mixer Tools -->
<svg fill="#000000" width="800px" height="800px" viewBox="0 0 24 24" id="file-folder-document-2" data-name="Flat Color" xmlns="http://www.w3.org/2000/svg" class="icon flat-color">
<g id="SVGRepo_bgCarrier" stroke-width="0"/>
<g id="SVGRepo_tracerCarrier" stroke-linecap="round" stroke-linejoin="round"/>
<g id="SVGRepo_iconCarrier">
<path id="secondary" d="M18,2H6A2,2,0,0,0,4,4v7a1,1,0,0,0,1,1H19a1,1,0,0,0,1-1V4A2,2,0,0,0,18,2Z" style="fill: #dedede;"/>
<path id="primary" d="M20,8H10.41A2,2,0,0,0,9,8.59L7.59,10H4a2,2,0,0,0-2,2v8a2,2,0,0,0,2,2H20a2,2,0,0,0,2-2V10A2,2,0,0,0,20,8Z" style="fill: #B5B5B5;"/>
<path id="secondary-2" data-name="secondary" d="M18,17H14a1,1,0,0,0,0,2h4a1,1,0,0,0,0-2Z" style="fill: #dedede;"/>
</g>
</svg>